<svg xmlns="http://www.w3.org/2000/svg" aria-hidden="true" style="position:absolute;width:0;height:0;overflow:hidden">
  <defs>
	<symbol id="play" viewBox="0 0 30 32">
      <path d="M0 32V0l30.476 16L0 32z"/>
    </symbol>
    <symbol id="chocolate" viewBox="0 0 32 32">
      <path fill="#fcf1e0" d="M3.944 20.076 14.721 2.652l.64-.674 8.236 5.491.056 3.314 2.01 3.28-8.88 14.077-12.839-8.063z" style="fill:var(--color1, #fcf1e0)"/>
      <path fill="none" stroke="#fd9222" stroke-linecap="round" stroke-linejoin="round" stroke-width="2.667" d="M21.635 23.879 7.449 15.015m3.912-6.416 14.186 8.864M10.63 25.864l11.736-19.25m4.81 8.175c-3.04-1.899-4.234-3.384-2.278-6.592l-9.626-6.015-11.736 19.25 14.186 8.864 9.454-15.507z" style="stroke:var(--color2, #fd9222)"/>
    </symbol>
    <symbol id="arrow-down" viewBox="0 0 32 32">
      <path d="M16.947 17.867a1.334 1.334 0 0 1-1.894 0l-6.107-6.12a1.334 1.334 0 1 0-1.894 1.88l6.12 6.12a4.001 4.001 0 0 0 5.654 0l6.12-6.12a1.337 1.337 0 0 0-.434-2.172 1.331 1.331 0 0 0-1.46.292l-6.107 6.12z"/>
    </symbol>
    <symbol id="checkmark" viewBox="0 0 32 32">
      <path d="M12.636 31.213c1.395 0 2.449-.536 3.163-1.607l15.448-23.28c.257-.379.446-.753.569-1.121.123-.379.184-.742.184-1.088 0-.96-.335-1.752-1.004-2.377-.658-.636-1.473-.954-2.444-.954-.669 0-1.238.134-1.707.402-.457.257-.893.703-1.305 1.339L12.569 22.895l-6.494-7.782c-.703-.815-1.584-1.222-2.644-1.222-.993 0-1.813.318-2.46.954S0 16.279 0 17.238c0 .435.067.848.201 1.238.145.379.407.775.787 1.188l8.619 10.159c.792.926 1.802 1.389 3.029 1.389z"/>
    </symbol>
    <symbol id="exclamation_mark" viewBox="0 0 32 32">
      <path d="M14.5 20.5h3v3h-3v-3zm0-12h3v9h-3v-9zM15.985 1C7.705 1 1 7.72 1 16s6.705 15 14.985 15C24.28 31 31 24.28 31 16S24.28 1 15.985 1zM16 28C9.37 28 4 22.63 4 16S9.37 4 16 4s12 5.37 12 12-5.37 12-12 12z"/>
    </symbol>
    <symbol id="facebook" viewBox="0 0 32 32">
      <path stroke-width=".8" d="M8 .4h16A7.6 7.6 0 0 1 31.6 8v16a7.6 7.6 0 0 1-7.6 7.6H8A7.6 7.6 0 0 1 .4 24V8A7.6 7.6 0 0 1 8 .4z"/>
      <path d="M18.112 9.184h.576v2.16h-.72c-.288 0-.576 0-.72.144-.144.144-.144.288-.144.624v.768h1.584v1.824h-1.584v7.92h-2.448v-7.968H13.36v-1.824h1.296v-.624c0-1.056.144-1.824.432-2.16.432-.624 1.296-.912 2.592-.912.144.048.288.048.432.048z"/>
    </symbol>
    <symbol id="icon-chocolate" viewBox="0 0 32 32">
      <path d="m13.822 2.413 7.527 7.536.08-.08a.856.856 0 0 1 1.184-.013l.873.873c.305.305.315.77.083 1.094l-.004.007-.143.192 6.16 6.16c.55.55.55 1.43 0 1.98l-9.43 9.43c-.55.55-1.43.55-1.98 0l-4.447-4.447a.853.853 0 0 1-.612.317.842.842 0 0 1-.644-.246l-2.6-2.6a.856.856 0 0 1-.013-1.184l.006-.007.077-.076-7.527-7.527c-.55-.55-.55-1.43 0-1.98l9.43-9.43c.55-.55 1.43-.55 1.98 0v.001zm6.582 8.48-1.756-1.755a.59.59 0 0 0-.85 0l-3.58 3.58a.621.621 0 0 0-.179.43.602.602 0 0 0 .179.43l1.749 1.749.61-.61-1.565-1.565 3.21-3.22 1.569 1.574.613-.613zm-5.076 5.072-1.754-1.754a.59.59 0 0 0-.85 0l-3.59 3.59c-.24.23-.24.61 0 .85l1.752 1.752.616-.616-1.57-1.564 3.22-3.21 1.564 1.563.612-.611zM8.822 8.193l3.58 3.58c.24.24.62.24.85-.01l3.58-3.58a.57.57 0 0 0 .18-.42h.01c0-.15-.06-.31-.18-.43l-3.58-3.58a.602.602 0 0 0-.86 0l-3.58 3.59c-.24.23-.24.61 0 .85zm-5.07 5.07 3.58 3.58c.24.24.62.24.85 0l3.58-3.58a.578.578 0 0 0 .18-.43h.01c0-.16-.06-.31-.18-.43l-3.58-3.58a.59.59 0 0 0-.85 0l-3.59 3.59c-.24.23-.24.61 0 .85zm6.933 8.754 2.362 2.363 9.636-13.04-.655-.655-11.343 11.332z"/>
      <path d="m13.822 2.413 7.527 7.536.08-.08a.856.856 0 0 1 1.184-.013l.873.873c.305.305.315.77.083 1.094l-.004.007-.143.192 6.16 6.16c.55.55.55 1.43 0 1.98l-9.43 9.43c-.55.55-1.43.55-1.98 0l-4.447-4.447a.853.853 0 0 1-.612.317.842.842 0 0 1-.644-.246l-2.6-2.6a.856.856 0 0 1-.013-1.184l.006-.007.077-.076-7.527-7.527c-.55-.55-.55-1.43 0-1.98l9.43-9.43c.55-.55 1.43-.55 1.98 0v.001zm6.582 8.48-1.756-1.755a.59.59 0 0 0-.85 0l-3.58 3.58a.621.621 0 0 0-.179.43.602.602 0 0 0 .179.43l1.749 1.749.61-.61-1.565-1.565 3.21-3.22 1.569 1.574.613-.613zm-5.076 5.072-1.754-1.754a.59.59 0 0 0-.85 0l-3.59 3.59c-.24.23-.24.61 0 .85l1.752 1.752.616-.616-1.57-1.564 3.22-3.21 1.564 1.563.612-.611zM8.822 8.193l3.58 3.58c.24.24.62.24.85-.01l3.58-3.58a.57.57 0 0 0 .18-.42h.01c0-.15-.06-.31-.18-.43l-3.58-3.58a.602.602 0 0 0-.86 0l-3.58 3.59c-.24.23-.24.61 0 .85zm-5.07 5.07 3.58 3.58c.24.24.62.24.85 0l3.58-3.58a.578.578 0 0 0 .18-.43h.01c0-.16-.06-.31-.18-.43l-3.58-3.58a.59.59 0 0 0-.85 0l-3.59 3.59c-.24.23-.24.61 0 .85zm6.933 8.754 2.362 2.363 9.636-13.04-.655-.655-11.343 11.332z"/>
    </symbol>
    <symbol id="icon-coin" viewBox="0 0 32 32">
      <path d="M16 2.667c-7.333 0-13.333 6-13.333 13.333s6 13.333 13.333 13.333 13.333-6 13.333-13.333S23.333 2.667 16 2.667zm0 24c-5.867 0-10.667-4.8-10.667-10.667S10.133 5.333 16 5.333 26.667 10.133 26.667 16 21.867 26.667 16 26.667z"/>
      <path d="M17.733 14.667h-3.467c-.667 0-1.2-.533-1.2-1.2s.533-1.2 1.2-1.2h4.933c.8 0 1.333-.533 1.333-1.333s-.533-1.333-1.333-1.333h-1.867v-1.2c0-.8-.533-1.333-1.333-1.333s-1.333.533-1.333 1.333v1.2h-.4c-2.133 0-3.867 1.733-3.867 3.867s1.733 3.867 3.867 3.867h3.333c.667 0 1.2.533 1.2 1.2s-.533 1.2-1.2 1.2h-4.933c-.8 0-1.333.533-1.333 1.333s.533 1.333 1.333 1.333h2v1.2c0 .8.533 1.333 1.333 1.333s1.333-.533 1.333-1.333v-1.2h.4c2.133 0 3.867-1.733 3.867-3.867s-1.733-3.867-3.867-3.867z"/>
    </symbol>
    <symbol id="icon-menu" viewBox="0 0 32 32">
      <path stroke-linecap="round" stroke-linejoin="round" stroke-width="2.286" d="M4 16h24M4 8h24M4 24h24"/>
    </symbol>
    <symbol id="icon-menu-1" viewBox="0 0 32 32">
      <path stroke-linecap="round" stroke-linejoin="round" stroke-width="2.5" d="M4 16h24M4 8h24M4 24h24"/>
    </symbol>
    <symbol id="icon-spoon" viewBox="0 0 32 32">
      <path d="M15.451 14.106a5.154 5.154 0 0 1-1.177-3.282c0-4.324 5.181-8.642 10.362-8.642a5.183 5.183 0 0 1 5.181 5.182c0 5.182-4.318 10.364-8.646 10.364a5.151 5.151 0 0 1-3.281-1.177L5.132 29.312a1.73 1.73 0 0 1-2.445-2.445l12.764-12.761z"/>
    </symbol>
    <symbol id="instagram" viewBox="0 0 32 32">
      <path stroke-width=".8" d="M8 .4h16A7.6 7.6 0 0 1 31.6 8v16a7.6 7.6 0 0 1-7.6 7.6H8A7.6 7.6 0 0 1 .4 24V8A7.6 7.6 0 0 1 8 .4z"/>
      <path d="M23.631 12.854a5.555 5.555 0 0 0-.357-1.887 3.926 3.926 0 0 0-2.246-2.242 5.654 5.654 0 0 0-1.865-.358c-.82-.037-1.081-.047-3.164-.047s-2.35 0-3.164.047a5.653 5.653 0 0 0-1.864.358 3.93 3.93 0 0 0-2.246 2.242 5.584 5.584 0 0 0-.357 1.861c-.037.82-.048 1.08-.048 3.159s0 2.345.048 3.159a5.62 5.62 0 0 0 .357 1.862 3.926 3.926 0 0 0 2.247 2.241 5.605 5.605 0 0 0 1.864.383c.821.037 1.082.048 3.164.048s2.35 0 3.164-.048a5.642 5.642 0 0 0 1.865-.357 3.932 3.932 0 0 0 2.246-2.242 5.585 5.585 0 0 0 .357-1.862c.037-.819.048-1.079.048-3.159-.002-2.079-.002-2.343-.049-3.158zm-7.637 7.065c-2.178 0-3.943-1.762-3.943-3.937s1.765-3.937 3.943-3.937c2.177 0 3.943 1.762 3.943 3.937s-1.766 3.937-3.943 3.937zm4.1-7.101a.917.917 0 1 1 0-1.836.918.918 0 1 1 0 1.836z"/>
      <path d="M15.995 18.386a2.402 2.402 0 1 0 0-4.804 2.402 2.402 0 0 0 0 4.804z"/>
    </symbol>
    <symbol id="twitter" viewBox="0 0 32 32">
      <path stroke-width=".8" d="M8 .4h16A7.6 7.6 0 0 1 31.6 8v16a7.6 7.6 0 0 1-7.6 7.6H8A7.6 7.6 0 0 1 .4 24V8A7.6 7.6 0 0 1 8 .4z"/>
      <path d="M24 11.139a6.839 6.839 0 0 1-1.89.518 3.262 3.262 0 0 0 1.443-1.813 6.555 6.555 0 0 1-2.08.794 3.28 3.28 0 0 0-5.674 2.243c0 .26.022.51.076.748a9.284 9.284 0 0 1-6.761-3.431 3.285 3.285 0 0 0 1.008 4.384 3.24 3.24 0 0 1-1.482-.404v.036a3.295 3.295 0 0 0 2.628 3.223 3.274 3.274 0 0 1-.86.108 2.9 2.9 0 0 1-.621-.056 3.311 3.311 0 0 0 3.065 2.285 6.59 6.59 0 0 1-4.067 1.399c-.269 0-.527-.012-.785-.045a9.234 9.234 0 0 0 5.032 1.472c6.036 0 9.336-5 9.336-9.334 0-.145-.005-.285-.012-.424A6.544 6.544 0 0 0 24 11.139z"/>
    </symbol>
    <symbol id="user" viewBox="0 0 32 32">
      <path stroke-linecap="round" stroke-linejoin="round" stroke-width="2.667" d="M26.667 28v-2.667A5.332 5.332 0 0 0 21.334 20H10.667a5.332 5.332 0 0 0-5.333 5.333V28M16 14.667A5.333 5.333 0 1 0 16 4a5.333 5.333 0 0 0 0 10.667z"/>
    </symbol>
  </defs>
</svg>
