<svg xmlns="http://www.w3.org/2000/svg" aria-hidden="true" style="position:absolute;width:0;height:0;overflow:hidden">
  <defs>
  <symbol id="close" viewBox="0 0 32 32">
      <path d="M32 3.223 28.777 0 16 12.777 3.223 0 0 3.223 12.777 16 0 28.777 3.223 32 16 19.223 28.777 32 32 28.777 19.223 16 32 3.223z"/>
    </symbol>
  <symbol id="scroll-dot" viewBox="0 0 32 32">
      <path d="M16 32c8.837 0 16-7.163 16-16S24.837 0 16 0 0 7.163 0 16s7.163 16 16 16z"/>
    </symbol>
    <symbol id="scroll-rectangle" viewBox="0 0 69 32">
      <path d="M52.923 0H16C7.163 0 0 7.163 0 16s7.163 16 16 16h36.923c8.837 0 16-7.163 16-16s-7.163-16-16-16z"/>
    </symbol>
	<symbol id="arrow-right" viewBox="0 0 48 32">
      <path d="M34.4 28.4c-.4 0-1.2 0-1.6-.4-.8-1.2-.8-2.4 0-3.2l6.8-6.8h-36c-1.2 0-2-.8-2-2s.8-2 2-2H40l-7.2-6.8c-.8-.8-.8-2 0-2.8s2-.8 2.8 0L46 14.8l.4.4v1.6c0 .4-.4.4-.4.4L35.6 27.6c-.4.4-.8.8-1.2.8z"/>
    </symbol>
	<symbol id="play" viewBox="0 0 30 32">
      <path d="M0 32V0l30.476 16L0 32z"/>
    </symbol>
    <symbol id="chocolate" viewBox="0 0 32 32">
      <path fill="var(--color-primary)" d="M3.944 20.076 14.721 2.652l.64-.674 8.236 5.491.056 3.314 2.01 3.28-8.88 14.077-12.839-8.063z" />
      <path fill="none" stroke="var(--color-secondary)" stroke-linecap="round" stroke-linejoin="round" stroke-width="2.667" d="M21.635 23.879 7.449 15.015m3.912-6.416 14.186 8.864M10.63 25.864l11.736-19.25m4.81 8.175c-3.04-1.899-4.234-3.384-2.278-6.592l-9.626-6.015-11.736 19.25 14.186 8.864 9.454-15.507z" />
    </symbol>
    <symbol id="arrow-down" viewBox="0 0 32 32">
      <path d="M16.947 17.867a1.334 1.334 0 0 1-1.894 0l-6.107-6.12a1.334 1.334 0 1 0-1.894 1.88l6.12 6.12a4.001 4.001 0 0 0 5.654 0l6.12-6.12a1.337 1.337 0 0 0-.434-2.172 1.331 1.331 0 0 0-1.46.292l-6.107 6.12z"/>
    </symbol>
    <symbol id="checkmark" viewBox="0 0 32 32">
      <path d="M12.636 31.213c1.395 0 2.449-.536 3.163-1.607l15.448-23.28c.257-.379.446-.753.569-1.121.123-.379.184-.742.184-1.088 0-.96-.335-1.752-1.004-2.377-.658-.636-1.473-.954-2.444-.954-.669 0-1.238.134-1.707.402-.457.257-.893.703-1.305 1.339L12.569 22.895l-6.494-7.782c-.703-.815-1.584-1.222-2.644-1.222-.993 0-1.813.318-2.46.954S0 16.279 0 17.238c0 .435.067.848.201 1.238.145.379.407.775.787 1.188l8.619 10.159c.792.926 1.802 1.389 3.029 1.389z"/>
    </symbol>
    <symbol id="exclamation_mark" viewBox="0 0 32 32">
      <path d="M14.5 20.5h3v3h-3v-3zm0-12h3v9h-3v-9zM15.985 1C7.705 1 1 7.72 1 16s6.705 15 14.985 15C24.28 31 31 24.28 31 16S24.28 1 15.985 1zM16 28C9.37 28 4 22.63 4 16S9.37 4 16 4s12 5.37 12 12-5.37 12-12 12z"/>
    </symbol>
    <symbol id="facebook" viewBox="0 0 14 32">
      <path d="M11.804.854h1.28v4.8h-1.6c-.64 0-1.28 0-1.6.32-.32.32-.32.64-.32 1.387v1.707h3.52v4.053h-3.52v17.6h-5.44V13.014h-2.88V8.961h2.88V7.574c0-2.347.32-4.053.96-4.8.96-1.387 2.88-2.027 5.76-2.027.32.107.64.107.96.107z"/>
    </symbol>
	<symbol id="instagram_new" viewBox="0 0 32 32">
      <path d="M22.667 30.667H9.334c-4.4 0-8-3.6-8-8V9.334c0-4.4 3.6-8 8-8h13.333c4.4 0 8 3.6 8 8v13.333c0 4.4-3.6 8-8 8zM9.333 4C6.4 4 4 6.4 4 9.333v13.333c0 2.933 2.4 5.333 5.333 5.333h13.333c2.933 0 5.333-2.4 5.333-5.333V9.333C27.999 6.4 25.599 4 22.666 4H9.333z"/>
      <path d="M16.133 22.667c-.4 0-.667 0-1.067-.133-1.333-.267-2.667-.933-3.6-1.867s-1.6-2.267-1.867-3.6c-.267-1.333 0-2.8.667-4 .533-1.333 1.467-2.4 2.667-3.067s2.667-.933 4-.667c1.467.267 2.667.933 3.733 1.867 1.067 1.067 1.733 2.267 1.867 3.733.267 1.333 0 2.8-.667 4s-1.6 2.267-2.933 2.933c-.8.533-1.867.8-2.8.8zM16 12c-.667 0-1.2.133-1.867.4-.8.4-1.333.933-1.733 1.733s-.533 1.6-.4 2.4c.133.8.533 1.6 1.067 2.133s1.333.933 2.133 1.067c.8.133 1.733 0 2.4-.4.8-.4 1.333-.933 1.733-1.733s.533-1.6.4-2.4c-.133-.8-.533-1.6-1.067-2.267-.667-.667-1.333-1.067-2.267-1.067 0 .133-.133.133-.4.133zM23.333 10C22.533 10 22 9.467 22 8.667s.533-1.333 1.333-1.333c.8 0 1.333.533 1.333 1.333S24.133 10 23.333 10z"/>
    </symbol>
    <symbol id="twitter_new" viewBox="0 0 32 32">
      <path d="M11.067 29.2C7.6 29.2 4 28.267.8 26.4c-.533-.267-.8-.933-.667-1.467S.8 24 1.333 24c2.267.133 4.533-.4 6.533-1.333C-2.267 16.4 1.999 4 2.133 3.867c.133-.4.533-.8 1.067-.8s.933.133 1.333.533C5.6 5.333 8 7.733 9.866 8.667c1.467.8 3.2 1.2 4.8 1.333 0-1.467.4-2.933 1.2-4.133s2-2.133 3.467-2.667c1.467-.533 2.933-.667 4.4-.267 1.2.267 2.267.8 3.067 1.6 1.067-.4 2.133-.933 3.067-1.6.4-.267 1.067-.267 1.467 0s.667.933.533 1.467c-.4 1.867-1.333 3.6-2.667 5.067v.667c0 7.333-3.2 13.467-8.933 16.667-2.667 1.6-5.867 2.4-9.2 2.4zm-4.4-3.2c4.4 1.067 8.8.533 12.533-1.6 4.8-2.8 7.6-8.133 7.6-14.4 0-.267 0-.533-.133-.8-.133-.4 0-.933.4-1.2.267-.267.533-.667.8-.933-.267.133-.667.267-.933.267-.533.133-1.067 0-1.333-.4-.667-.667-1.467-1.2-2.4-1.467s-1.867-.133-2.8.133c-.933.4-1.6.933-2.133 1.733s-.8 1.733-.8 2.667v1.333c0 .667-.533 1.333-1.333 1.333-2.533.133-5.067-.533-7.333-1.6-1.733-.8-3.467-2.267-4.8-3.733-.667 3.733-.533 10.667 7.2 14.133.4.133.8.533.8 1.067s-.133.933-.533 1.2c-1.6 1.067-3.2 1.867-4.8 2.267z"/>
    </symbol>
    <symbol id="instagram" viewBox="0 0 32 32">
      <path d="M31.261 9.707a11.116 11.116 0 0 0-.715-3.774 7.856 7.856 0 0 0-4.492-4.484 11.275 11.275 0 0 0-3.729-.715C20.684.661 20.164.64 15.998.64s-4.7 0-6.329.094a11.273 11.273 0 0 0-3.727.715A7.856 7.856 0 0 0 1.45 5.933a11.138 11.138 0 0 0-.715 3.721c-.073 1.64-.096 2.159-.096 6.318s0 4.69.096 6.318a11.22 11.22 0 0 0 .715 3.725 7.857 7.857 0 0 0 4.493 4.482 11.23 11.23 0 0 0 3.727.766c1.643.073 2.163.095 6.329.095s4.7 0 6.329-.095a11.268 11.268 0 0 0 3.729-.714 7.87 7.87 0 0 0 4.492-4.484c.449-1.192.689-2.449.715-3.725.073-1.638.096-2.158.096-6.318-.003-4.159-.003-4.687-.099-6.317zm-15.273 14.13c-4.357 0-7.886-3.524-7.886-7.873s3.53-7.873 7.886-7.873c4.354 0 7.886 3.524 7.886 7.873s-3.533 7.873-7.886 7.873zm8.2-14.202a1.835 1.835 0 1 1 0-3.672 1.836 1.836 0 1 1 0 3.672z"/>
    </symbol>
    <symbol id="twitter" viewBox="0 0 38 32">
      <path d="M37.647 3.621A16.11 16.11 0 0 1 33.2 4.84 7.671 7.671 0 0 0 36.595.574a15.424 15.424 0 0 1-4.894 1.868A7.734 7.734 0 0 0 26.063 0C21.79 0 18.35 3.468 18.35 7.72c0 .612.052 1.2.179 1.76-6.416-.313-12.094-3.388-15.908-8.073a7.769 7.769 0 0 0-1.056 3.901 7.728 7.728 0 0 0 3.428 6.414 7.63 7.63 0 0 1-3.487-.951v.085c0 3.751 2.675 6.866 6.184 7.584a7.693 7.693 0 0 1-2.024.254c-.494 0-.993-.028-1.461-.132 1 3.056 3.838 5.304 7.212 5.376a15.509 15.509 0 0 1-9.569 3.292c-.633 0-1.24-.028-1.847-.106 3.419 2.205 7.471 3.464 11.84 3.464 14.202 0 21.967-11.765 21.967-21.962 0-.341-.012-.671-.028-.998 1.532-1.087 2.819-2.445 3.868-4.007z"/>
    </symbol>
    <symbol id="icon-chocolate" viewBox="0 0 32 32">
      <path d="m13.822 2.413 7.527 7.536.08-.08a.856.856 0 0 1 1.184-.013l.873.873c.305.305.315.77.083 1.094l-.004.007-.143.192 6.16 6.16c.55.55.55 1.43 0 1.98l-9.43 9.43c-.55.55-1.43.55-1.98 0l-4.447-4.447a.853.853 0 0 1-.612.317.842.842 0 0 1-.644-.246l-2.6-2.6a.856.856 0 0 1-.013-1.184l.006-.007.077-.076-7.527-7.527c-.55-.55-.55-1.43 0-1.98l9.43-9.43c.55-.55 1.43-.55 1.98 0v.001zm6.582 8.48-1.756-1.755a.59.59 0 0 0-.85 0l-3.58 3.58a.621.621 0 0 0-.179.43.602.602 0 0 0 .179.43l1.749 1.749.61-.61-1.565-1.565 3.21-3.22 1.569 1.574.613-.613zm-5.076 5.072-1.754-1.754a.59.59 0 0 0-.85 0l-3.59 3.59c-.24.23-.24.61 0 .85l1.752 1.752.616-.616-1.57-1.564 3.22-3.21 1.564 1.563.612-.611zM8.822 8.193l3.58 3.58c.24.24.62.24.85-.01l3.58-3.58a.57.57 0 0 0 .18-.42h.01c0-.15-.06-.31-.18-.43l-3.58-3.58a.602.602 0 0 0-.86 0l-3.58 3.59c-.24.23-.24.61 0 .85zm-5.07 5.07 3.58 3.58c.24.24.62.24.85 0l3.58-3.58a.578.578 0 0 0 .18-.43h.01c0-.16-.06-.31-.18-.43l-3.58-3.58a.59.59 0 0 0-.85 0l-3.59 3.59c-.24.23-.24.61 0 .85zm6.933 8.754 2.362 2.363 9.636-13.04-.655-.655-11.343 11.332z"/>
      <path d="m13.822 2.413 7.527 7.536.08-.08a.856.856 0 0 1 1.184-.013l.873.873c.305.305.315.77.083 1.094l-.004.007-.143.192 6.16 6.16c.55.55.55 1.43 0 1.98l-9.43 9.43c-.55.55-1.43.55-1.98 0l-4.447-4.447a.853.853 0 0 1-.612.317.842.842 0 0 1-.644-.246l-2.6-2.6a.856.856 0 0 1-.013-1.184l.006-.007.077-.076-7.527-7.527c-.55-.55-.55-1.43 0-1.98l9.43-9.43c.55-.55 1.43-.55 1.98 0v.001zm6.582 8.48-1.756-1.755a.59.59 0 0 0-.85 0l-3.58 3.58a.621.621 0 0 0-.179.43.602.602 0 0 0 .179.43l1.749 1.749.61-.61-1.565-1.565 3.21-3.22 1.569 1.574.613-.613zm-5.076 5.072-1.754-1.754a.59.59 0 0 0-.85 0l-3.59 3.59c-.24.23-.24.61 0 .85l1.752 1.752.616-.616-1.57-1.564 3.22-3.21 1.564 1.563.612-.611zM8.822 8.193l3.58 3.58c.24.24.62.24.85-.01l3.58-3.58a.57.57 0 0 0 .18-.42h.01c0-.15-.06-.31-.18-.43l-3.58-3.58a.602.602 0 0 0-.86 0l-3.58 3.59c-.24.23-.24.61 0 .85zm-5.07 5.07 3.58 3.58c.24.24.62.24.85 0l3.58-3.58a.578.578 0 0 0 .18-.43h.01c0-.16-.06-.31-.18-.43l-3.58-3.58a.59.59 0 0 0-.85 0l-3.59 3.59c-.24.23-.24.61 0 .85zm6.933 8.754 2.362 2.363 9.636-13.04-.655-.655-11.343 11.332z"/>
    </symbol>
    <symbol id="icon-coin" viewBox="0 0 32 32">
      <path d="M16 2.667c-7.333 0-13.333 6-13.333 13.333s6 13.333 13.333 13.333 13.333-6 13.333-13.333S23.333 2.667 16 2.667zm0 24c-5.867 0-10.667-4.8-10.667-10.667S10.133 5.333 16 5.333 26.667 10.133 26.667 16 21.867 26.667 16 26.667z"/>
      <path d="M17.733 14.667h-3.467c-.667 0-1.2-.533-1.2-1.2s.533-1.2 1.2-1.2h4.933c.8 0 1.333-.533 1.333-1.333s-.533-1.333-1.333-1.333h-1.867v-1.2c0-.8-.533-1.333-1.333-1.333s-1.333.533-1.333 1.333v1.2h-.4c-2.133 0-3.867 1.733-3.867 3.867s1.733 3.867 3.867 3.867h3.333c.667 0 1.2.533 1.2 1.2s-.533 1.2-1.2 1.2h-4.933c-.8 0-1.333.533-1.333 1.333s.533 1.333 1.333 1.333h2v1.2c0 .8.533 1.333 1.333 1.333s1.333-.533 1.333-1.333v-1.2h.4c2.133 0 3.867-1.733 3.867-3.867s-1.733-3.867-3.867-3.867z"/>
    </symbol>
	<symbol id="menu" viewBox="0 0 45 32">
      <path d="M41.6 30.88H3.2c-1.12 0-2.08-.96-2.08-2.08s.96-2.08 2.08-2.08h38.4c1.12 0 2.08.96 2.08 2.08s-.96 2.08-2.08 2.08zm0-12.8H3.2c-1.12 0-2.08-.96-2.08-2.08s.96-1.92 2.08-1.92h38.4c1.12 0 2.08.96 2.08 2.08s-.96 1.92-2.08 1.92zm0-12.8H3.2c-1.12 0-1.92-.96-1.92-2.08s.8-1.92 1.92-1.92h38.4c1.12 0 2.08.96 2.08 2.08s-.96 1.92-2.08 1.92z"/>
    </symbol>
	<symbol id="menu-focus" viewBox="0 0 48 32">
      <path d="M45 32H3c-1.2 0-2-.8-2-2s.8-2 2-2h42c1.2 0 2 .8 2 2s-.8 2-2 2zm0-14H3c-1.2 0-2-.8-2-2s.8-2 2-2h42c1.2 0 2 .8 2 2s-.8 2-2 2zm0-14H3c-1.2 0-2-.8-2-2s.8-2 2-2h42c1.2 0 2 .8 2 2s-.8 2-2 2z"/>
    </symbol>
    <symbol id="icon-spoon" viewBox="0 0 32 32">
      <path d="M15.451 14.106a5.154 5.154 0 0 1-1.177-3.282c0-4.324 5.181-8.642 10.362-8.642a5.183 5.183 0 0 1 5.181 5.182c0 5.182-4.318 10.364-8.646 10.364a5.151 5.151 0 0 1-3.281-1.177L5.132 29.312a1.73 1.73 0 0 1-2.445-2.445l12.764-12.761z"/>
    </symbol>
    <symbol id="mail" viewBox="0 0 32 32">
      <path d="M26.729 28.047H5.27c-2.259 0-4.141-1.882-4.141-4.141V8.094c0-2.259 1.882-4.141 4.141-4.141h21.271c2.259 0 4.141 1.882 4.141 4.141v16c0 2.071-1.694 3.953-3.953 3.953zM5.271 6.776c-.753 0-1.318.565-1.318 1.318v16c0 .753.565 1.318 1.318 1.318h21.271c.753 0 1.318-.565 1.318-1.318v-16c0-.753-.565-1.318-1.318-1.318H5.271z"/>
      <path d="M16 18.824c-.376 0-.565 0-.753-.188L1.882 9.224c-.565-.376-.753-1.318-.376-1.882s1.318-.753 1.882-.376L16 15.813l12.612-8.847c.565-.376 1.506-.376 1.882.376.376.565.376 1.506-.376 1.882l-13.365 9.412c-.188 0-.376.188-.753.188z"/>
    </symbol>
    <symbol id="phone" viewBox="0 0 32 32">
      <path d="M26.729 30.682h-.376c-4.329-.376-8.471-1.882-12.235-4.329a30.248 30.248 0 0 1-8.471-8.471C3.388 14.306 1.882 9.976 1.506 5.647c0-.565 0-1.129.188-1.694.188-.376.376-.941.753-1.318.376-.565.941-.753 1.318-.941.565-.188 1.129-.376 1.694-.376h3.953c.941 0 1.882.376 2.635.941.941.565 1.318 1.506 1.506 2.447.188 1.129.376 2.259.941 3.388.188.753.376 1.506.188 2.259-.188.941-.565 1.694-1.129 2.071l-.941.941a18.42 18.42 0 0 0 6.024 6.024l.941-.941c.565-.565 1.318-.941 2.071-1.129s1.506-.188 2.259.188c1.129.376 2.259.753 3.388.941.941.188 1.882.565 2.635 1.318.565.753.941 1.694.941 2.635v3.953c0 .565-.188 1.129-.376 1.694s-.565.941-.941 1.318c-.376.376-.941.753-1.506.941s-.941.376-1.318.376zM9.6 4.141c-.188 0-.188 0 0 0H5.459c-.188 0-.376 0-.565.188a.404.404 0 0 0-.376.376s-.188 0-.188.188v.565c.376 3.765 1.694 7.718 3.953 10.918a23.958 23.958 0 0 0 7.529 7.529c3.2 2.071 6.965 3.388 10.918 3.953h.565c.189 0 .376-.188.376-.188l.376-.376c.188-.188.188-.376.188-.565v-4.141c0-.376-.188-.565-.376-.753s-.565-.376-.753-.376a24.31 24.31 0 0 1-3.953-.941c-.188 0-.565-.188-.753 0-.188 0-.376.188-.565.376l-1.694 1.694c-.376.376-1.129.565-1.694.188-3.576-2.071-6.588-4.894-8.471-8.471-.753-.941-.565-1.694-.188-2.071l1.694-1.694c.188-.188.188-.376.376-.565v-.753a14.937 14.937 0 0 1-1.129-4.141c0-.376-.188-.565-.376-.753S9.788 4.14 9.6 4.14z"/>
    </symbol>
    <symbol id="user" viewBox="0 0 32 32">
      <path d="M26.667 29.333c-.8 0-1.333-.533-1.333-1.333v-2.667c0-1.067-.4-2.133-1.2-2.8s-1.733-1.2-2.8-1.2H10.667c-1.067 0-2.133.4-2.8 1.2-.8.667-1.2 1.733-1.2 2.8V28c0 .8-.533 1.333-1.333 1.333S4.001 28.8 4.001 28v-2.667c0-1.733.667-3.467 2-4.667 1.2-1.333 2.933-2 4.667-2h10.667c1.733 0 3.467.667 4.667 2s2 2.933 2 4.667V28c0 .8-.533 1.333-1.333 1.333zM16 16c-3.733 0-6.667-2.933-6.667-6.667S12.266 2.666 16 2.666s6.667 2.933 6.667 6.667S19.734 16 16 16zm0-10.667c-2.267 0-4 1.733-4 4s1.733 4 4 4 4-1.733 4-4-1.733-4-4-4z"/>
    </symbol>
	<symbol id="click" viewBox="0 0 40 32">
      <path d="M33.782 1.02a3.668 3.668 0 0 1 5.115.039 3.712 3.712 0 0 1 .135 5.141L19.454 30.817a3.674 3.674 0 0 1-4.074.914 3.675 3.675 0 0 1-1.226-.815L1.17 17.862A3.693 3.693 0 0 1-.001 15.22a3.714 3.714 0 0 1 1.077-2.682 3.664 3.664 0 0 1 4.1-.763 3.68 3.68 0 0 1 1.195.857l10.275 10.325 17.042-21.83c.031-.038.063-.074.098-.109h-.005z"/>
    </symbol>
  </defs>
</svg>
